# xmcd CD database file
#
# Track frame offsets:
#	150
#	12407
#	26612
#	38805
#	53132
#	66835
#	78915
#	94327
#	110127
#	123932
#	137637
#	148200
#	163362
#	177934
#
# Disc length: 2561 seconds
#
# Revision: 0
# Processed by: cddbd v1.4PL0 Copyright (c) Steve Scherf et al.
# Submitted via: Feurio! 1.61 - http://www.feurio.com
#
DISCID=c809ff0e
DTITLE=Various Artist - Westwärts ( Deutsche Country- und Westernsongs ) 
DYEAR=1900
DGENRE=
TTITLE0=Tom Astor - Kopf hoch,Mann
TTITLE1=Jonny Hill - So weit die Füße tragen
TTITLE2=Rio Carter - Nie mehr Alkohol beim Fahren
TTITLE3=Ralf Paulsen - Verdammt mein Sohn hat dein Gesicht
TTITLE4=Mr. Felix - Buchstabiere LKW
TTITLE5=Susie - Schmeiß den Gang rein Junge ( Ab nach Hamburg ) 
TTITLE6=Hank Stone - Und in Hamburg sitzt Gaby
TTITLE7=Jonny Hill - Ich habe sieben Bräute
TTITLE8=Ronny - Nur noch einmal nach Hause ( Detroit City ) 
TTITLE9=Tom Astor - Ein Mann der Nacht
TTITLE10=Ralf Paulsen - Geisterreiter
TTITLE11=Rio Carter - Aus und vorbei
TTITLE12=Mr. Felix - Ich bin abgebrannt
TTITLE13=Gunter Gabriel - Hey, Boss, ich brauch mehr Geld 
EXTD=
EXTT0=
EXTT1=
EXTT2=
EXTT3=
EXTT4=
EXTT5=
EXTT6=
EXTT7=
EXTT8=
EXTT9=
EXTT10=
EXTT11=
EXTT12=
EXTT13=
PLAYORDER=
